<?xml version="1.0" encoding="UTF-8"?>
<svg width="1340px" height="519px" viewBox="0 0 1340 519" version="1.1" xmlns="http://www.w3.org/2000/svg" xmlns:xlink="http://www.w3.org/1999/xlink">
    <title>logo 2</title>
    <defs>
        <linearGradient x1="-4.25810133%" y1="50%" x2="100%" y2="50%" id="linearGradient-1">
            <stop stop-color="#46CF3A" offset="0%"></stop>
            <stop stop-color="#36CFBC" offset="100%"></stop>
        </linearGradient>
    </defs>
    <g id="页面-1" stroke="none" stroke-width="1" fill="none" fill-rule="evenodd">
        <g id="logo">
            <rect id="矩形" x="0" y="0" width="1340" height="519"></rect>
            <g id="图形" transform="translate(36.000000, 36.000000)">
                <polyline id="路径" stroke="#000000" stroke-width="24" transform="translate(222.891089, 228.927613) rotate(-45.000000) translate(-222.891089, -228.927613) " points="355.960396 361.99692 89.8217822 361.99692 89.8217822 95.8583059 355.960396 95.8583059"></polyline>
                <path d="M224,359.287129 C248.497383,359.287129 268.356436,379.146181 268.356436,403.643564 C268.356436,428.140947 248.497383,448 224,448 C199.502617,448 179.643564,428.140947 179.643564,403.643564 C179.643564,379.146181 199.502617,359.287129 224,359.287129 Z M224,157.465347 C244.158324,157.465347 262.222825,166.430066 274.424237,180.590239 C293.096856,198.038408 310.849961,206.59409 327.683168,206.257426 C344.785715,206.257426 364.900516,190.255815 387.281394,182.759274 C392.343788,180.748703 397.864617,179.643564 403.643564,179.643564 C428.140947,179.643564 448,199.502617 448,224 C448,248.497383 428.140947,268.356436 403.643564,268.356436 C395.805623,268.356436 388.442498,266.323502 382.05271,262.756154 L382.019802,262.811881 L382.019802,262.811881 L381.396188,262.382245 C380.033516,261.590698 378.71686,260.728664 377.451212,259.801135 C361.844767,250.078635 345.625047,245.722695 328.792079,246.732673 C304.112608,246.732673 283.636629,262.145478 268.477847,273.48125 C256.694156,284.083407 241.100463,290.534653 224,290.534653 C187.253926,290.534653 157.465347,260.746074 157.465347,224 C157.465347,187.253926 187.253926,157.465347 224,157.465347 Z M44.3564356,179.643564 C68.8538186,179.643564 88.7128713,199.502617 88.7128713,224 C88.7128713,248.497383 68.8538186,268.356436 44.3564356,268.356436 C19.8590527,268.356436 -3.69482223e-13,248.497383 -3.69482223e-13,224 C-3.55271368e-13,199.502617 19.8590527,179.643564 44.3564356,179.643564 Z M224,0 C248.497383,0 268.356436,19.8590527 268.356436,44.3564356 C268.356436,68.8538186 248.497383,88.7128713 224,88.7128713 C199.502617,88.7128713 179.643564,68.8538186 179.643564,44.3564356 C179.643564,19.8590527 199.502617,0 224,0 Z" id="形状结合" fill="url(#linearGradient-1)"></path>
            </g>
            <g id="Gowaf" transform="translate(540.000000, 181.167837)" fill="#000000" fill-rule="nonzero">
                <path d="M129.091102,69.0176543 C134.967019,69.0176543 139.427052,70.5933647 142.471202,73.7447855 C145.515352,76.8962064 146.559566,81.2515409 145.603845,86.8107889 C143.981825,100.762023 139.986639,112.706908 133.618286,122.645443 C127.249933,132.583979 118.999288,140.127706 108.866351,145.276624 C98.7334135,150.425541 87.3641807,153 74.7586526,153 C61.0329106,153 48.4429989,149.567388 36.9889172,142.702165 C25.5348356,135.836941 16.5064956,126.538896 9.90389736,114.808028 C3.30129912,103.077161 0,90.346504 0,76.616057 C0,63.0189153 3.29140876,50.3549108 9.87422627,38.6240434 C16.4570438,26.8931761 25.4577948,17.5951307 36.8764794,10.7299072 C48.295164,3.86468365 60.922555,0.432071898 74.7586526,0.432071898 C84.9717539,0.432071898 94.517516,2.36031239 103.395939,6.21679337 C112.274362,10.0732744 120.058598,15.486199 126.748648,22.4555673 C129.326389,24.9279642 130.449205,27.4732625 130.117097,30.0914621 C129.784989,32.7096617 128.222833,34.9893908 125.430627,36.9306494 L120.751965,40.2393289 C118.174224,42.0743598 115.675606,42.8252436 113.25611,42.4919803 C110.836615,42.158717 108.403586,40.8621146 105.957022,38.602173 C101.665646,34.2759991 97,31.0652157 91.9600763,28.9698229 C86.9201555,26.87443 81.1863475,25.8267336 74.7586526,25.8267336 C65.4304784,25.8267336 57.1683814,27.9929449 49.9723613,32.3253675 C42.7763413,36.6577901 37.2127517,42.6565291 33.2815927,50.3215844 C29.3504336,57.9866398 27.384854,66.7597956 27.384854,76.6410517 C27.384854,86.6222869 29.3504336,95.4454321 33.2815927,103.110487 C37.2127517,110.775543 42.7430264,116.774282 49.8724166,121.106704 C57.0018068,125.439127 65.2732737,127.605338 74.6868173,127.605338 C84.1961412,127.605338 92.3489238,125.672411 99.1451649,121.806557 C105.941406,117.940703 111.138532,112.375207 114.736542,105.110067 C118.334552,97.8449277 120.133557,89.2134088 120.133557,79.2155105 L120.133557,69.0176543 L129.091102,69.0176543 Z M125.555558,95.0121898 L86.5989789,95.0121898 C83.2924744,95.0121898 80.7589797,94.1280007 78.9984951,92.3596224 C77.2380104,90.5912442 76.3577681,88.0449045 76.3577681,84.7206033 L76.3577681,79.3092408 C76.3577681,75.9849396 77.2380104,73.4385999 78.9984951,71.6702216 C80.7589797,69.9018434 83.2924744,69.0176543 86.5989789,69.0176543 L125.555558,69.0176543 L125.555558,95.0121898 Z" id="G"></path>
                <path d="M236.667737,129.40496 C242.531161,129.40496 247.661656,128.071907 252.059224,125.405801 C256.456792,122.739694 259.821598,119.007146 262.153641,114.208155 C264.485685,109.409163 265.651706,103.93219 265.651706,97.7772336 C265.651706,91.5347958 264.485685,86.0474077 262.153641,81.3150692 C259.821598,76.5827306 256.456792,72.8835083 252.059224,70.2174021 C247.661656,67.5512958 242.510339,66.2182427 236.605271,66.2182427 C230.783491,66.2182427 225.673817,67.5512958 221.27625,70.2174021 C216.878682,72.8835083 213.513876,76.5827306 211.181833,81.3150692 C208.849789,86.0474077 207.683767,91.5347958 207.683767,97.7772336 C207.683767,103.93219 208.883104,109.409163 211.281777,114.208155 C213.680451,119.007146 217.045256,122.739694 221.376194,125.405801 C225.707132,128.071907 230.804313,129.40496 236.667737,129.40496 Z M236.667737,153 C226.673265,153 217.445035,150.500525 208.983049,145.501576 C200.521062,140.502627 193.824766,133.770709 188.894159,125.305822 C183.963553,116.840934 181.49825,107.676194 181.49825,97.8116014 C181.49825,87.8137031 183.996868,78.5823103 188.994104,70.1174231 C193.99134,61.6525358 200.720952,54.953944 209.182938,50.0216475 C217.644925,45.089351 226.836716,42.6232027 236.758312,42.6232027 C246.68199,42.6232027 255.877425,45.089351 264.344617,50.0216475 C272.811809,54.953944 279.510708,61.6525358 284.441314,70.1174231 C289.371921,78.5823103 291.837224,87.8137031 291.837224,97.8116014 C291.837224,107.676194 289.371921,116.840934 284.441314,125.305822 C279.510708,133.770709 272.814412,140.502627 264.352425,145.501576 C255.890439,150.500525 246.662209,153 236.667737,153 Z" id="o"></path>
                <path d="M451.476933,52.9804005 C452.538846,50.2288956 453.960976,48.1814093 455.743324,46.8379417 C457.525671,45.4944742 459.865002,44.8227404 462.761317,44.8227404 L468.411317,44.8227404 C472.055135,44.8227404 474.727616,45.9464625 476.428758,48.1939067 C478.1299,50.4413509 478.342283,53.2803375 477.065906,56.7108663 L443.053467,143.380147 C441.244051,148.327024 437.592946,150.800462 432.10015,150.800462 L427.580775,150.800462 C424.790651,150.800462 422.531484,150.155285 420.803273,148.864932 C419.075062,147.574578 417.785151,145.586975 416.933539,142.902123 L398.378176,83.4146278 L379.822814,142.96461 C378.971201,145.607804 377.68129,147.574578 375.953079,148.864932 C374.224868,150.155285 371.965701,150.800462 369.175577,150.800462 L364.656202,150.800462 C359.163407,150.800462 355.512301,148.327024 353.702885,143.380147 L319.690447,56.7108663 C318.414069,53.2803375 318.626452,50.4413509 320.327594,48.1939067 C322.028737,45.9464625 324.701217,44.8227404 328.345035,44.8227404 L333.995035,44.8227404 C336.89135,44.8227404 339.230681,45.4944742 341.013029,46.8379417 C342.795376,48.1814093 344.217506,50.2486831 345.279419,53.039763 L367.595202,112.608491 L387.868364,50.9683235 C389.250933,46.8712681 392.162864,44.8227404 396.604157,44.8227404 L400.152195,44.8227404 C404.593489,44.8227404 407.50542,46.8712681 408.887988,50.9683235 L429.161151,112.608491 L451.476933,52.9804005 Z" id="w"></path>
                <path d="M614.458154,140.508876 C614.458154,143.833177 613.574268,146.379517 611.806496,148.147895 C610.038723,149.916273 607.493256,150.800462 604.170094,150.800462 L598.560697,150.800462 C595.237535,150.800462 592.692068,149.916273 590.924295,148.147895 C589.156523,146.379517 588.272637,143.833177 588.272637,140.508876 L588.272637,116.60765 L593.869541,98.6114332 L588.272637,79.6154265 L588.272637,55.1143269 C588.272637,51.7900257 589.156523,49.243686 590.924295,47.4753078 C592.692068,45.7069295 595.237535,44.8227404 598.560697,44.8227404 L604.170094,44.8227404 C607.493256,44.8227404 610.038723,45.7069295 611.806496,47.4753078 C613.574268,49.243686 614.458154,51.7900257 614.458154,55.1143269 L614.458154,140.508876 Z M559.488557,130.004834 C565.751759,130.004834 571.215404,128.671781 575.879491,126.005675 C580.543578,123.339568 584.141588,119.573693 586.673521,114.70805 C589.205454,109.842406 590.471421,104.210256 590.471421,97.8116014 C590.471421,91.4129465 589.205454,85.7474707 586.673521,80.8151743 C584.141588,75.8828778 580.543578,72.0836764 575.879491,69.4175702 C571.215404,66.751464 565.751759,65.4184109 559.488557,65.4184109 C554.55795,65.4184109 549.993808,66.7847903 545.79613,69.5175492 C541.598451,72.250308 538.300275,76.0828357 535.901602,81.0151322 C533.502929,85.9474287 532.303592,91.5462518 532.303592,97.8116014 C532.303592,104.076951 533.502929,109.642448 535.901602,114.508092 C538.300275,119.373735 541.565136,123.172937 545.696185,125.905696 C549.827234,128.638454 554.424691,130.004834 559.488557,130.004834 Z M557.489662,153 C547.49519,153 538.500165,150.533852 530.504587,145.601555 C522.509009,140.669259 516.245807,133.970667 511.714979,125.50578 C507.184152,117.040892 504.918738,107.8095 504.918738,97.8116014 C504.918738,87.8137031 507.184152,78.5823103 511.714979,70.1174231 C516.245807,61.6525358 522.509009,54.953944 530.504587,50.0216475 C538.500165,45.089351 547.49519,42.6232027 557.489662,42.6232027 C567.350875,42.6232027 575.779546,45.4559406 582.775677,51.1214163 C589.771808,56.786892 595.002248,63.8853998 598.466999,72.4169397 C601.931749,80.9484796 603.664124,89.4133668 603.664124,97.8116014 C603.664124,106.209836 601.931749,114.674723 598.466999,123.206263 C595.002248,131.737803 589.771808,138.836311 582.775677,144.501786 C575.779546,150.167262 567.350875,153 557.489662,153 Z" id="a"></path>
                <path d="M694.212603,140.696336 C694.212603,144.010223 693.355265,146.522716 691.640588,148.233814 C689.925912,149.944913 687.406992,150.800462 684.08383,150.800462 L678.755527,150.800462 C675.432365,150.800462 672.913446,149.944913 671.198769,148.233814 C669.484093,146.522716 668.626754,144.010223 668.626754,140.696336 L668.626754,41.8233709 C668.626754,30.4091036 671.847369,20.9689006 678.288598,13.5027618 C684.729827,6.03662291 693.85655,1.59849337 705.668767,0.188373127 C709.02108,-0.34276522 711.747697,0.24929782 713.848618,1.96456225 C715.949539,3.67982668 717,6.09338181 717,9.20522766 L717,14.5322328 C717,17.537851 716.202524,19.8186216 714.607573,21.3745445 C713.012622,22.9304674 710.5671,24.0802257 707.271006,24.8238194 C703.879132,25.3570407 701.248295,26.2964265 699.378496,27.641977 C697.508697,28.9875275 696.180265,30.7939186 695.3932,33.0611503 C694.606136,35.328382 694.212603,38.2491222 694.212603,41.8233709 L694.212603,140.696336 Z M707.483388,44.8227404 C710.602497,44.8227404 712.968376,45.6272587 714.581025,47.2362955 C716.193675,48.8453323 717,51.2057736 717,54.3176194 L717,59.1228593 C717,62.1284775 716.193675,64.4623618 714.581025,66.1245124 C712.968376,67.786663 710.602497,68.6177383 707.483388,68.6177383 L659.953426,68.6177383 C656.940509,68.6177383 654.601178,67.786663 652.935433,66.1245124 C651.269687,64.4623618 650.436815,62.1284775 650.436815,59.1228593 L650.436815,54.3176194 C650.436815,51.2057736 651.269687,48.8453323 652.935433,47.2362955 C654.601178,45.6272587 656.940509,44.8227404 659.953426,44.8227404 L707.483388,44.8227404 Z" id="f"></path>
            </g>
        </g>
    </g>
</svg>