<?xml version="1.0" encoding="UTF-8"?>
<svg width="1024px" height="1024px" viewBox="0 0 1024 1024" version="1.1" xmlns="http://www.w3.org/2000/svg" xmlns:xlink="http://www.w3.org/1999/xlink">
    <title>logo</title>
    <defs>
        <linearGradient x1="-4.25810133%" y1="50%" x2="100%" y2="50%" id="linearGradient-1">
            <stop stop-color="#46CF3A" offset="0%"></stop>
            <stop stop-color="#36CFBC" offset="100%"></stop>
        </linearGradient>
    </defs>
    <g id="页面-1" stroke="none" stroke-width="1" fill="none" fill-rule="evenodd">
        <g id="logo">
            <rect id="矩形" x="0" y="0" width="1024" height="1024"></rect>
            <polyline id="路径" stroke="#000000" stroke-width="38" transform="translate(510.019802, 520.799309) rotate(-45.000000) translate(-510.019802, -520.799309) " points="747.643564 758.423071 272.39604 758.423071 272.39604 283.175546 747.643564 283.175546"></polyline>
            <path d="M512,753.584158 C555.745327,753.584158 591.207921,789.046752 591.207921,832.792079 C591.207921,876.537406 555.745327,912 512,912 C468.254673,912 432.792079,876.537406 432.792079,832.792079 C432.792079,789.046752 468.254673,753.584158 512,753.584158 Z M512,393.188119 C547.990705,393.188119 580.243749,409.190942 602.031835,434.469289 C635.379365,465.636218 667.085481,480.918092 697.148515,480.316832 C727.692987,480.316832 763.61797,451.734646 803.590449,438.35031 C812.625951,434.763131 822.478833,432.792079 832.792079,432.792079 C876.537406,432.792079 912,468.254673 912,512 C912,555.745327 876.537406,591.207921 832.792079,591.207921 C818.795609,591.207921 805.647045,587.577607 794.236627,581.20722 L794.178218,581.306931 L794.178218,581.306931 C793.810332,581.05101 793.442253,580.796786 793.07398,580.544257 C790.631909,579.127034 788.273035,577.582484 786.005866,575.920223 C758.141053,558.566221 729.182231,550.790848 699.128713,552.594059 C655.058465,552.594059 618.494373,580.116629 591.425163,600.359049 C570.382394,619.29181 542.536525,630.811881 512,630.811881 C446.38201,630.811881 393.188119,577.61799 393.188119,512 C393.188119,446.38201 446.38201,393.188119 512,393.188119 Z M191.207921,432.792079 C234.953248,432.792079 270.415842,468.254673 270.415842,512 C270.415842,555.745327 234.953248,591.207921 191.207921,591.207921 C147.462594,591.207921 112,555.745327 112,512 C112,468.254673 147.462594,432.792079 191.207921,432.792079 Z M512,112 C555.745327,112 591.207921,147.462594 591.207921,191.207921 C591.207921,234.953248 555.745327,270.415842 512,270.415842 C468.254673,270.415842 432.792079,234.953248 432.792079,191.207921 C432.792079,147.462594 468.254673,112 512,112 Z" id="形状结合" fill="url(#linearGradient-1)"></path>
        </g>
    </g>
</svg>